<svg xmlns="http://www.w3.org/2000/svg"  viewBox="0 0 64 64" width="96px" height="96px"><path fill="#72caaf" d="M31 3.210000000000001A28 28 0 1 0 31 59.21A28 28 0 1 0 31 3.210000000000001Z"/><path fill="#81d6bb" d="M43.67,10.47l0,0a3,3,0,0,0-.74-4.79A28,28,0,0,0,7,15.62a3,3,0,0,0,2.55,4.59h0a3,3,0,0,0,2.49-1.35A22,22,0,0,1,40.2,11,3,3,0,0,0,43.67,10.47Z"/><path fill="#5dbc9d" d="M52.51,26.58c1.33,6.17.09,13.29-5.23,20.3a3.26,3.26,0,0,1-.62.62c-7,5.31-14.12,6.54-20.29,5.22a3,3,0,0,0-2.73.81h0a3,3,0,0,0,1.53,5.07c7.93,1.68,17.11,0,26-6.6a3.25,3.25,0,0,0,.66-.66c6.61-8.87,8.28-18,6.6-26a3,3,0,0,0-5.07-1.53h0A3,3,0,0,0,52.51,26.58Z"/><path fill="#faefde" d="M35.73,58.33l-5-8.64c-.63-1.08.22-2.71,1.44-2.39,4.82,1.29,11.19,1,13.78-6a1.93,1.93,0,0,1,2.86-.65,11.29,11.29,0,0,0,7.39,1.77l2.28-7.59c-4.22,2.25-11.51-15.41-13.13-19.26A1,1,0,0,0,44.22,15L37.47,17.1a1,1,0,0,0-.68,1.36c2,4.23,8.51,19,.65,22.24-9.66,4-16.23-15.95-17.53-20.28a1,1,0,0,0-1.11-.68l-7.61,2.6a1,1,0,0,0-.73,1.32L22.68,57.13,30,59Z"/><path fill="#8d6c9f" d="M31,2A29,29,0,1,0,60,31,29,29,0,0,0,31,2ZM4,31a27,27,0,1,1,53.82,3,.89.89,0,0,1-.51-.05c-1.39-.5-4.66-3.55-10.93-18.46l-.13-.31a2,2,0,0,0-2.32-1.14l-6.68,2a2,2,0,0,0-1.37,2.76c3.83,8.22,5.18,14.68,3.81,18.2a4.57,4.57,0,0,1-2.63,2.7,5.36,5.36,0,0,1-4.57-.13c-6.41-3.05-10.8-16.79-11.61-19.51a2,2,0,0,0-2.25-1.37l-7.7,2.62A2,2,0,0,0,9.52,24L21.27,56.18A27,27,0,0,1,4,31ZM30.08,58a1,1,0,0,0,.19-1A1,1,0,0,0,29,56.4l-1.87.7a1,1,0,0,0-.56.53,26.76,26.76,0,0,1-2.9-.65,1,1,0,0,0,0-.18L11.37,23.33,19,20.74c1.22,4.07,5.69,17.39,12.66,20.7a7.35,7.35,0,0,0,6.19.17,6.56,6.56,0,0,0,3.73-3.82c2-5.16-1-13.6-3.8-19.75l6.66-2,.12.29c5.14,12.24,9,18.46,12.1,19.57a3.1,3.1,0,0,0,.88.17,26.78,26.78,0,0,1-1.64,5.43,10.31,10.31,0,0,1-6.54-1.61,3.25,3.25,0,0,0-2.74-.38A2.5,2.5,0,0,0,45,41c-2.57,6.89-9,6.31-12.59,5.34a2.2,2.2,0,0,0-2.34.83,2.75,2.75,0,0,0-.22,3l4.42,7.61A27.11,27.11,0,0,1,31,58Zm6.3-.52-4.81-8.28a.77.77,0,0,1,.08-.8c.12-.15.19-.13.23-.12,3.43.92,11.74,2.12,15-6.57a.5.5,0,0,1,.36-.31,1.24,1.24,0,0,1,1,.15,12.16,12.16,0,0,0,6.67,2A27.09,27.09,0,0,1,36.39,57.46Z"/><path fill="#8d6c9f" d="M19.79 28.88a1 1 0 0 0-1.29-.59l-1.87.7a1 1 0 1 0 .7 1.87l1.87-.7A1 1 0 0 0 19.79 28.88zM18 24.19a1 1 0 0 0-1.29-.59l-1.87.7a1 1 0 1 0 .7 1.87l1.87-.7A1 1 0 0 0 18 24.19zM21.54 33.56A1 1 0 0 0 20.25 33l-1.87.7a1 1 0 1 0 .7 1.87l1.87-.7A1 1 0 0 0 21.54 33.56zM23.29 38.25A1 1 0 0 0 22 37.66l-1.87.7a1 1 0 1 0 .7 1.87l1.87-.7A1 1 0 0 0 23.29 38.25zM25 42.93a1 1 0 0 0-1.29-.59l-1.87.7a1 1 0 1 0 .7 1.87l1.87-.7A1 1 0 0 0 25 42.93zM26.78 47.62A1 1 0 0 0 25.49 47l-1.87.7a1 1 0 1 0 .7 1.87l1.87-.7A1 1 0 0 0 26.78 47.62zM27.24 51.71l-1.87.7a1 1 0 1 0 .7 1.87l1.87-.7a1 1 0 1 0-.7-1.87zM38.35 10.32a21.2 21.2 0 0 1 2.1.92 1 1 0 1 0 .9-1.79 22.82 22.82 0 0 0-2.3-1 1 1 0 1 0-.7 1.87zM21.91 11a1 1 0 0 0 .41-.09 21 21 0 0 1 12-1.6 1 1 0 1 0 .32-2A23 23 0 0 0 21.5 9 1 1 0 0 0 21.91 11z"/></svg>